<svg width="236" height="236" viewBox="0 0 236 236" fill="none" xmlns="http://www.w3.org/2000/svg">
<rect width="236" height="236" rx="40" fill="url(#paint0_linear_125_1168)"/>
<path d="M131.097 203.587C125.607 202.34 123.675 198.732 123.815 196.513C123.893 195.22 124.595 194.059 125.585 193.226C126.936 192.092 133.259 191.788 125.59 181.336C125.59 181.336 183.846 170.657 196.161 185.6C196.161 185.6 183.558 199.588 166.805 203.907C155.815 206.738 143.347 206.37 131.092 203.58L131.097 203.587Z" fill="#05CDE3"/>
<path d="M118.066 149.682C116.057 176.043 131.98 198.753 158.34 200.768C163.778 201.185 169.077 200.673 174.078 199.367C193.303 194.352 206.216 177.449 207.813 156.533C209.822 130.171 191.99 107.317 165.623 105.307C139.255 103.297 120.075 123.321 118.066 149.682Z" fill="#05CDE3"/>
<path d="M109.842 142.253C107.833 168.614 123.756 191.323 150.116 193.339C155.554 193.756 160.853 193.244 165.854 191.938C185.079 186.922 197.992 170.019 199.589 149.103C201.593 122.734 183.753 99.8855 157.392 97.8766C131.032 95.8615 111.85 115.891 109.842 142.253Z" fill="white"/>
<path d="M122.873 196.158C117.383 194.911 115.451 191.303 115.591 189.083C115.669 187.79 116.371 186.63 117.361 185.796C118.711 184.663 125.035 184.358 117.366 173.907C117.366 173.907 175.622 163.228 187.937 178.17C187.937 178.17 175.334 192.159 158.581 196.477C147.591 199.309 135.123 198.94 122.868 196.151L122.873 196.158Z" fill="white"/>
<path d="M137.763 141.652C141.578 141.943 145.036 137.399 145.486 131.502C145.936 125.605 143.208 120.589 139.392 120.298C135.577 120.007 132.119 124.551 131.669 130.448C131.219 136.344 133.948 141.361 137.763 141.652Z" fill="#05CDE3"/>
<path d="M170.869 144.179C174.684 144.47 178.142 139.926 178.592 134.029C179.042 128.133 176.314 123.116 172.499 122.825C168.683 122.534 165.226 127.078 164.776 132.975C164.326 138.872 167.054 143.888 170.869 144.179Z" fill="#05CDE3"/>
<path d="M165.059 160.294C164.028 166.338 157.058 174.712 149.644 173.447C142.23 172.181 139.061 162.071 140.091 156.033C141.121 149.995 146.516 148.957 153.93 150.222C161.344 151.487 166.091 154.25 165.059 160.294Z" fill="#05CDE3"/>
<path d="M86.1299 135.467C91.1313 136.58 94.1259 134.365 94.876 132.485C95.3152 131.391 95.1896 130.163 94.7007 129.092C94.0314 127.633 88.9488 124.919 99.3289 119.311C99.3289 119.311 55.5746 87.8306 39.6237 95.3226C39.6237 95.3226 44.5396 111.738 56.636 121.817C64.572 128.428 74.9704 132.982 86.137 135.463L86.1299 135.467Z" fill="#05CDE3"/>
<path d="M96.0238 41.1811C73.5594 32.5628 49.9902 44.4071 41.372 66.8714C34.5348 84.7024 38.5659 103.629 52.43 115.246C56.0345 118.268 60.1877 120.752 64.8283 122.529C87.2927 131.148 109.239 118.668 117.857 96.2033C126.475 73.7389 118.502 49.7913 96.0325 41.1715L96.0238 41.1811Z" fill="#05CDE3"/>
<path d="M88.9322 33.5779C66.4622 24.9581 42.8931 36.8023 34.2748 59.2667C27.4377 77.0977 31.4687 96.0241 45.3329 107.641C48.9373 110.664 53.0905 113.148 57.7311 114.925C80.1955 123.543 102.142 111.063 110.76 88.5985C119.371 66.1381 111.398 42.1906 88.9322 33.5779Z" fill="black"/>
<path d="M79.0327 127.862C84.0341 128.975 87.0287 126.76 87.7788 124.88C88.218 123.786 88.0925 122.558 87.6035 121.487C86.9342 120.029 81.8516 117.314 92.2318 111.706C92.2318 111.706 48.4774 80.2259 32.5265 87.7179C32.5265 87.7179 37.4424 104.133 49.5389 114.212C57.4749 120.823 67.8732 125.377 79.0398 127.858L79.0327 127.862Z" fill="black"/>
<path d="M97.3944 70.3822C99.3217 65.357 98.2483 60.2723 94.9969 59.0253C91.7454 57.7783 87.5472 60.8411 85.6199 65.8664C83.6926 70.8916 84.7661 75.9762 88.0175 77.2232C91.2689 78.4702 95.4671 75.4074 97.3944 70.3822Z" fill="#05CDE3"/>
<path d="M69.1865 59.5624C71.1138 54.5371 70.0404 49.4525 66.789 48.2055C63.5376 46.9585 59.3394 50.0213 57.4121 55.0465C55.4847 60.0718 56.5582 65.1564 59.8096 66.4034C63.061 67.6504 67.2592 64.5876 69.1865 59.5624Z" fill="#05CDE3"/>
<defs>
<linearGradient id="paint0_linear_125_1168" x1="118" y1="0" x2="118" y2="236" gradientUnits="userSpaceOnUse">
<stop stop-color="#8300FA"/>
<stop offset="1" stop-color="#331581"/>
</linearGradient>
</defs>
</svg>
