<svg width="72" height="77" viewBox="0 0 72 77" fill="none" xmlns="http://www.w3.org/2000/svg">
<path d="M19.2315 69.6276C15.8362 68.8563 14.6415 66.6251 14.7278 65.2523C14.7762 64.4528 15.2106 63.7352 15.8223 63.2198C16.6577 62.5186 20.5686 62.3302 15.8255 55.8667C15.8255 55.8667 51.8529 49.2625 59.4691 58.5035C59.4691 58.5035 51.675 67.1543 41.3145 69.825C34.5178 71.5762 26.8073 71.3482 19.2282 69.6231L19.2315 69.6276Z" fill="#05CDE3"/>
<path d="M11.1725 36.2909C9.93018 52.5935 19.7777 66.6378 36.0796 67.884C39.4425 68.142 42.7195 67.8254 45.8123 67.0176C57.7019 63.9161 65.6876 53.4626 66.6752 40.5274C67.9175 24.2248 56.8897 10.0911 40.5832 8.84806C24.2767 7.60506 12.4148 19.9883 11.1725 36.2909Z" fill="#05CDE3"/>
<path d="M6.08632 31.6962C4.84399 47.9988 14.6915 62.0431 30.9935 63.2894C34.3563 63.5473 37.6333 63.2308 40.7262 62.4229C52.6157 59.3214 60.6014 48.8679 61.589 35.9327C62.8281 19.6256 51.7957 5.49506 35.4931 4.25273C19.1912 3.00652 7.32865 15.3936 6.08632 31.6962Z" fill="white"/>
<path d="M14.1453 65.0329C10.75 64.2617 9.55528 62.0304 9.64158 60.6576C9.69003 59.8582 10.1244 59.1405 10.7362 58.6251C11.5716 57.924 15.4824 57.7356 10.7393 51.2721C10.7393 51.2721 46.7668 44.6679 54.3829 53.9089C54.3829 53.9089 46.5888 62.5596 36.2284 65.2303C29.4317 66.9816 21.7211 66.7535 14.1421 65.0284L14.1453 65.0329Z" fill="white"/>
<path d="M23.3539 31.3247C25.7134 31.5047 27.8517 28.6944 28.13 25.0478C28.4082 21.4011 26.7211 18.2989 24.3616 18.1189C22.0021 17.9388 19.8638 20.7491 19.5855 24.3958C19.3073 28.0425 20.9944 31.1446 23.3539 31.3247Z" fill="#05CDE3"/>
<path d="M43.8275 32.8875C46.187 33.0676 48.3253 30.2573 48.6036 26.6106C48.8819 22.9639 47.1947 19.8618 44.8352 19.6817C42.4757 19.5017 40.3374 22.312 40.0592 25.9586C39.7809 29.6053 41.4681 32.7075 43.8275 32.8875Z" fill="#05CDE3"/>
<path d="M40.2345 42.8535C39.5967 46.5914 35.2861 51.7699 30.7012 50.9875C26.1162 50.2052 24.1561 43.9526 24.7933 40.2186C25.4305 36.4846 28.767 35.8423 33.3519 36.6247C37.9369 37.4071 40.8723 39.1156 40.2345 42.8535Z" fill="#05CDE3"/>
</svg>
